<?xml version="1.0" encoding="UTF-8"?>
<svg width="119px" height="119px" viewBox="0 0 119 119" version="1.1" xmlns="http://www.w3.org/2000/svg" xmlns:xlink="http://www.w3.org/1999/xlink">
    <!-- Generator: Sketch 49.2 (51160) - http://www.bohemiancoding.com/sketch -->
    <title>Shape</title>
    <desc>Created with Sketch.</desc>
    <defs></defs>
    <g id="Map-Image-Copy" stroke="none" stroke-width="1" fill="none" fill-rule="evenodd">
        <g id="Group" fill="#686868" fill-rule="nonzero">
            <path d="M59.5,111.948148 C51.2568737,111.948148 43.479142,109.980681 36.5264281,106.574637 C36.2584736,106.102163 35.9341076,105.650844 35.4757644,105.347615 C32.5000593,101.426785 25.8928656,81.822637 27.5922612,78.395437 C27.8743186,77.9511704 28.255096,77.5703704 28.6217706,77.1754667 C29.5596113,76.1741037 30.7301493,74.9118222 31.3013155,73.0712889 C32.0276132,70.7723852 31.4917042,68.6920889 31.0686182,67.0208 C30.8570751,66.1957333 30.6525836,65.4059259 30.6948922,64.8911407 C30.7865608,63.4666667 32.8385281,62.0774519 35.0174212,60.6036148 C38.2258237,58.4245926 42.2169353,55.7166815 42.3650154,50.7239704 C42.4707869,47.0922667 40.3200995,44.2715259 38.2046694,41.9937778 C34.4039464,37.9107556 30.2083432,34.1662222 25.2723394,30.5204148 C23.0934463,28.9337481 21.041479,27.4246519 20.3645414,25.562963 C20.294027,25.3655111 20.1529983,25.2244741 20.0542783,25.0481778 C22.9665205,21.7126519 26.273643,18.7297185 29.9333373,16.2192593 C30.708995,16.6564741 31.5128585,17.4885926 32.1968476,18.8425481 C32.5423679,19.5195259 32.8385281,20.2106074 33.1417397,20.9157926 C33.8327803,22.5236148 34.6225409,24.3500444 35.8706447,26.0001778 C37.6264518,28.320237 40.5316426,30.2453926 43.6977364,30.2453926 C44.5580114,30.2453926 45.4394406,30.1114074 46.3138184,29.7940741 C47.7382081,29.2792889 48.7959232,28.4330667 49.9171012,27.5374815 C51.003022,26.6701037 53.7742356,24.752 55.8121,25.4430815 C56.3268547,25.6264296 56.9544323,26.0283852 57.6172671,26.4726519 C58.3224105,26.9239704 59.0275539,27.3752889 59.7679545,27.749037 C62.9975113,29.3357037 66.551434,28.9196444 68.6175041,26.656 C68.8854586,26.3668741 69.1111045,26.0424889 69.4848305,25.5065481 C69.6399621,25.3232 70.824603,25.0552296 73.2926049,25.8661926 C76.2260014,26.8534519 80.6613534,28.3484444 84.3845105,25.6757926 C86.9512325,23.8423111 87.7833017,20.9651556 88.4461365,18.6592 C88.6294738,18.0456889 88.9397369,16.9879111 89.2358971,16.3461926 C94.6020384,20.0554667 99.2559848,24.7237926 102.922731,30.1255111 C102.781702,30.4569481 102.57721,30.7601778 102.541953,31.1198222 C101.540649,32.1000296 100.567552,32.8545778 99.6720194,32.988563 C99.3617563,33.0379259 99.0514932,33.0379259 98.7341787,33.0449778 L97.796338,33.0731852 C94.5174212,33.270637 91.5981275,34.6669037 89.25,35.7881481 C88.4179308,36.1901037 87.0217469,36.8600296 86.0204432,38.2280889 C85.0473453,39.5608889 84.7934937,41.0629333 84.603105,42.1630222 L84.603105,42.1700741 C84.4056648,42.1912296 84.1941218,42.2264889 83.9825788,42.2829037 C81.4229083,42.889363 80.2664731,44.9908148 79.582484,46.2389926 C79.533124,46.3236148 79.4767125,46.4223407 79.420301,46.5281185 C78.1157857,46.0344889 76.8676819,45.3927704 75.7041953,44.5959111 C75.4926523,44.4548741 75.2670064,44.3349926 75.0343091,44.2362667 C72.9541361,42.6919111 70.4156198,42.3957333 68.5963498,42.3111111 C62.1583906,42.0431407 56.672375,44.1869037 53.6614127,48.1712 C50.0158213,53.0158222 50.5587817,60.406163 54.8813107,64.6654815 C57.793553,67.5355852 61.5942759,68.5581037 64.9507585,69.4536889 L66.762977,69.9543704 C68.3848068,70.4197926 72.2348898,71.7808 72.8413131,74.2136889 C72.904776,74.495763 72.9470846,74.7919407 72.9893932,75.0881185 C73.1092676,75.8708741 73.2502963,76.8440296 73.6945366,77.8736 C73.9272339,78.4306963 74.237497,78.9525333 74.8791775,79.6154074 C74.7804575,79.9256889 74.138777,80.680237 73.7579995,81.1386074 L72.9893932,82.0835556 C70.8316544,84.8619852 69.9502252,88.4020148 70.6271628,91.5612444 C71.4451292,95.3904 74.5971202,98.4226963 78.2709173,98.9374815 C78.6587461,98.9938963 79.0536265,99.0221037 79.4485068,99.0221037 C82.7979379,99.0221037 86.1191633,97.054637 88.1570277,93.7825778 C89.8916805,90.9829926 90.4275895,87.9013333 90.9000356,85.1722667 L91.978905,78.9031704 C92.5218654,75.7721481 93.149443,72.8456296 94.6584499,71.3858963 C94.8417872,71.4211556 95.3283361,71.6679704 95.7514221,71.8795259 C100.003437,74.0232889 104.657383,75.2362074 109.388895,75.6029037 C102.57721,96.6667852 82.7979379,111.948148 59.5,111.948148 M7.05848542,59.5035259 C7.05848542,49.0244741 10.1752192,39.271763 15.4920005,31.0775111 C17.1067789,33.2212741 19.2927234,34.8855111 21.5491823,36.5426963 C25.6742712,39.5820444 29.538457,43.0374519 33.0430197,46.8031407 C34.1148376,47.9596444 35.3488386,49.4264296 35.3135814,50.5194667 C35.2783242,51.8099556 33.6071344,53.0369778 31.0615667,54.7646815 C27.9095757,56.8943407 23.981927,59.5528889 23.657561,64.4116148 C23.5376867,66.0546963 23.9255155,67.5637926 24.2357786,68.7696593 C24.4543731,69.6158815 24.6941218,70.5749333 24.5742475,70.9627852 C24.4755274,71.2801185 23.932567,71.8583704 23.4530694,72.3802074 C22.7831832,73.0924444 22.1344513,73.8328889 21.6126452,74.6509037 C18.4959114,79.636563 22.0286798,91.3285333 24.7857905,98.7047704 C13.940685,89.0860444 7.05848542,75.0951704 7.05848542,59.5035259 M59.5,7.05185185 C68.0251837,7.05185185 76.056767,9.1392 83.1857668,12.7709037 C82.4735719,14.0754963 82.0293316,15.4858667 81.6767599,16.6987852 C81.288931,18.0245333 80.8587936,19.5336296 80.280576,19.942637 C79.4908154,20.4997333 77.0087106,19.6746667 75.5279095,19.181037 C68.6104527,16.8891852 65.3103816,19.4137481 63.9635577,21.1202963 L63.8084262,21.6491852 C63.7097061,21.6491852 63.3077744,21.6280296 62.8917397,21.4235259 C62.4051908,21.183763 61.9397962,20.8734815 61.481453,20.5702519 C60.5295094,19.942637 59.45064,19.2445037 58.1108675,18.7790815 C54.3101446,17.467437 49.8395354,18.6027852 45.234949,22.2485926 C44.7484001,22.6434963 44.2477483,23.0454519 43.9445366,23.1512296 C43.4156791,23.3204741 42.2733468,22.7704296 41.497689,21.7479111 C40.7572885,20.7677037 40.2002252,19.4842667 39.6149562,18.1232593 C39.255333,17.2911407 38.9027613,16.4660741 38.4937781,15.662163 C37.873252,14.4280889 37.1399028,13.4126222 36.3642451,12.5029333 C43.3592676,9.04752593 51.1934108,7.05185185 59.5,7.05185185 M111.095342,68.6497778 C106.878585,68.544 102.690033,67.4791704 98.8399502,65.546963 C97.7046694,64.9687111 96.0052738,64.0590222 93.9321522,64.404563 C92.7827684,64.5526519 91.6897962,65.0462815 90.5756696,65.9136593 C86.521095,69.0799407 85.6255629,74.2701037 85.0332425,77.7114074 L83.9543731,83.9734519 C83.5735956,86.1665778 83.1787153,88.4302222 82.1633088,90.0592 C81.4158568,91.2650667 80.1465987,92.0548741 79.2510666,91.9561481 C78.4965632,91.8503704 77.713854,91.0041481 77.5164138,90.0803556 C77.2766651,88.9520593 77.6785968,87.5416889 78.5600261,86.4063407 L79.159398,85.6729481 C80.4639132,84.1285926 82.4312633,81.7803259 81.7966343,78.5787852 C81.5427826,77.3094519 80.9504622,76.3786074 80.1748045,75.1022222 C80.0901872,74.9118222 80.0267243,74.4534519 79.9632614,74.0444444 C79.8856957,73.5296593 79.8010785,73.0148741 79.6812041,72.5071407 C78.5952832,68.1702519 74.8086632,64.9405037 68.7232757,63.1775407 L66.7770799,62.6416 C64.0199692,61.9011556 61.41799,61.2100741 59.824366,59.6375111 C57.9980446,57.8392889 57.7512444,54.4685037 59.2955084,52.4164148 C61.5590187,49.4193778 66.3469424,49.2219259 68.3072411,49.362963 C68.7867386,49.3841185 69.1886703,49.4193778 69.5200877,49.4687407 C70.0559967,50.1598222 70.8528087,50.6605037 71.7906494,50.7944889 L72.4393814,50.886163 C73.9483882,51.8452148 75.5490638,52.6279704 77.2061507,53.2273778 C77.9465513,53.5024 79.6671012,54.1300148 81.563937,53.5729185 C83.9684759,52.8747852 85.0826025,50.8579556 85.7524887,49.645037 C85.8300545,49.504 85.935826,49.3136 86.0274947,49.1584593 C86.471735,49.1373037 87.0429012,49.0808889 87.6775302,48.8763852 C90.7872126,47.839763 91.3090187,44.8074667 91.5558189,43.3406815 C91.6192818,42.9880889 91.6756933,42.4168889 91.5910761,42.5226667 C91.7109505,42.4380444 92.1058308,42.2405926 92.2962195,42.1559704 C94.270621,41.2110222 96.3155369,40.223763 98.9034131,40.0897778 C99.502785,40.0756741 100.095105,40.0545185 100.694477,39.9628444 C103.204788,39.5890963 105.165087,38.221037 106.723453,36.8318222 C110.030576,43.7073778 111.941515,51.3727407 111.941515,59.5035259 C111.941515,62.6274963 111.617149,65.6738963 111.095342,68.6497778 M59.5,0 C26.6967291,0 0,26.6912593 0,59.5035259 C0,92.3087407 26.6967291,119 59.5,119 C92.3032709,119 119,92.3087407 119,59.5035259 C119,26.6912593 92.3032709,0 59.5,0" id="Shape"></path>
        </g>
    </g>
</svg>